# 3ds Max Wavefront OBJ Exporter v0.97b - (c)2007 guruware
# File Created: 04.06.2015 01:16:11

mtllib interceptor.mtl

#
# object Loft002
#

v  -250.0914 -7.1479 18.9444
v  -250.0914 -7.1479 16.7128
v  -166.7276 -7.1479 16.7128
v  -166.7276 -7.1479 18.9444
v  -250.0914 -7.1479 14.4811
v  -166.7276 -7.1479 14.4811
v  -250.0914 -7.1479 12.2494
v  -166.7276 -7.1479 12.2494
v  -250.0914 -7.1479 10.0177
v  -166.7276 -7.1479 10.0177
v  -250.0914 -7.1479 7.7861
v  -166.7276 -7.1479 7.7861
v  -250.0914 -6.9327 4.9264
v  -166.7276 -6.9327 4.9264
v  -250.0914 -3.0475 3.7130
v  -166.7276 -3.0475 3.7130
v  -250.0914 0.2824 2.8634
v  -166.7276 0.2824 2.8634
v  -250.0914 3.6123 2.0139
v  -166.7276 3.6123 2.0139
v  -250.0914 6.9421 1.1643
v  -166.7276 6.9421 1.1643
v  -250.0914 10.2720 0.3147
v  -166.7276 10.2720 0.3147
v  -250.0914 12.8313 0.4613
v  -166.7276 12.8313 0.4613
v  -250.0914 10.2858 0.6320
v  -166.7276 10.2858 0.6320
v  -250.0914 6.9615 -0.1869
v  -166.7276 6.9615 -0.1869
v  -250.0914 3.6372 -1.0058
v  -166.7276 3.6372 -1.0058
v  -250.0914 0.3128 -1.8247
v  -166.7276 0.3128 -1.8247
v  -250.0914 -3.0115 -2.6436
v  -166.7276 -3.0115 -2.6436
v  -250.0914 -6.8967 -3.8251
v  -166.7276 -6.8967 -3.8251
v  -250.0914 -7.1146 -6.8806
v  -166.7276 -7.1146 -6.8806
v  -250.0914 -7.1146 -9.3048
v  -166.7276 -7.1146 -9.3048
v  -250.0914 -7.1146 -11.7291
v  -166.7276 -7.1146 -11.7291
v  -250.0914 -7.1146 -14.1533
v  -166.7276 -7.1146 -14.1533
v  -250.0914 -7.1146 -16.5775
v  -166.7276 -7.1146 -16.5775
v  -250.0914 -7.1146 -19.0017
v  -166.7276 -7.1146 -19.0017
v  -83.3638 -7.1479 16.7128
v  -83.3638 -7.1479 18.9444
v  -83.3638 -7.1479 14.4811
v  -83.3638 -7.1479 12.2494
v  -83.3638 -7.1479 10.0177
v  -83.3638 -7.1479 7.7861
v  -83.3638 -6.9327 4.9264
v  -83.3638 -3.0475 3.7130
v  -83.3638 0.2824 2.8634
v  -83.3638 3.6123 2.0139
v  -83.3638 6.9421 1.1643
v  -83.3638 10.2720 0.3147
v  -83.3638 12.8313 0.4613
v  -83.3638 10.2858 0.6320
v  -83.3638 6.9615 -0.1869
v  -83.3638 3.6372 -1.0058
v  -83.3638 0.3128 -1.8247
v  -83.3638 -3.0115 -2.6436
v  -83.3638 -6.8967 -3.8251
v  -83.3638 -7.1146 -6.8806
v  -83.3638 -7.1146 -9.3048
v  -83.3638 -7.1146 -11.7291
v  -83.3638 -7.1146 -14.1533
v  -83.3638 -7.1146 -16.5775
v  -83.3638 -7.1146 -19.0017
v  -0.0000 -7.1479 16.7128
v  -0.0000 -7.1479 18.9444
v  -0.0000 -7.1479 14.4811
v  -0.0000 -7.1479 12.2494
v  -0.0000 -7.1479 10.0177
v  -0.0000 -7.1479 7.7861
v  -0.0000 -6.9327 4.9264
v  -0.0000 -3.0475 3.7130
v  -0.0000 0.2824 2.8634
v  -0.0000 3.6123 2.0139
v  -0.0000 6.9421 1.1643
v  -0.0000 10.2720 0.3147
v  -0.0000 12.8313 0.4613
v  -0.0000 10.2858 0.6320
v  -0.0000 6.9615 -0.1869
v  -0.0000 3.6372 -1.0058
v  -0.0000 0.3128 -1.8247
v  -0.0000 -3.0115 -2.6436
v  -0.0000 -6.8967 -3.8251
v  -0.0000 -7.1146 -6.8806
v  -0.0000 -7.1146 -9.3048
v  -0.0000 -7.1146 -11.7291
v  -0.0000 -7.1146 -14.1533
v  -0.0000 -7.1146 -16.5775
v  -0.0000 -7.1146 -19.0017
v  83.3638 -7.1479 16.7128
v  83.3638 -7.1479 18.9444
v  83.3638 -7.1479 14.4811
v  83.3638 -7.1479 12.2494
v  83.3638 -7.1479 10.0177
v  83.3638 -7.1479 7.7861
v  83.3638 -6.9327 4.9264
v  83.3638 -3.0475 3.7130
v  83.3638 0.2824 2.8634
v  83.3638 3.6123 2.0139
v  83.3638 6.9421 1.1643
v  83.3638 10.2720 0.3147
v  83.3638 12.8313 0.4613
v  83.3638 10.2858 0.6320
v  83.3638 6.9615 -0.1869
v  83.3638 3.6372 -1.0058
v  83.3638 0.3128 -1.8247
v  83.3638 -3.0115 -2.6436
v  83.3638 -6.8967 -3.8251
v  83.3638 -7.1146 -6.8806
v  83.3638 -7.1146 -9.3048
v  83.3638 -7.1146 -11.7291
v  83.3638 -7.1146 -14.1533
v  83.3638 -7.1146 -16.5775
v  83.3638 -7.1146 -19.0017
v  166.7276 -7.1479 16.7128
v  166.7276 -7.1479 18.9444
v  166.7276 -7.1479 14.4811
v  166.7276 -7.1479 12.2494
v  166.7276 -7.1479 10.0177
v  166.7276 -7.1479 7.7861
v  166.7276 -6.9327 4.9264
v  166.7276 -3.0475 3.7130
v  166.7276 0.2824 2.8634
v  166.7276 3.6123 2.0139
v  166.7276 6.9421 1.1643
v  166.7276 10.2720 0.3147
v  166.7276 12.8313 0.4613
v  166.7276 10.2858 0.6320
v  166.7276 6.9615 -0.1869
v  166.7276 3.6372 -1.0058
v  166.7276 0.3128 -1.8247
v  166.7276 -3.0115 -2.6436
v  166.7276 -6.8967 -3.8251
v  166.7276 -7.1146 -6.8806
v  166.7276 -7.1146 -9.3048
v  166.7276 -7.1146 -11.7291
v  166.7276 -7.1146 -14.1533
v  166.7276 -7.1146 -16.5775
v  166.7276 -7.1146 -19.0017
v  250.0914 -7.1479 16.7128
v  250.0914 -7.1479 18.9444
v  250.0914 -7.1479 14.4811
v  250.0914 -7.1479 12.2494
v  250.0914 -7.1479 10.0177
v  250.0914 -7.1479 7.7861
v  250.0914 -6.9327 4.9264
v  250.0914 -3.0475 3.7130
v  250.0914 0.2824 2.8634
v  250.0914 3.6123 2.0139
v  250.0914 6.9421 1.1643
v  250.0914 10.2720 0.3147
v  250.0914 12.8313 0.4613
v  250.0914 10.2858 0.6320
v  250.0914 6.9615 -0.1869
v  250.0914 3.6372 -1.0058
v  250.0914 0.3128 -1.8247
v  250.0914 -3.0115 -2.6436
v  250.0914 -6.8967 -3.8251
v  250.0914 -7.1146 -6.8806
v  250.0914 -7.1146 -9.3048
v  250.0914 -7.1146 -11.7291
v  250.0914 -7.1146 -14.1533
v  250.0914 -7.1146 -16.5775
v  250.0914 -7.1146 -19.0017
v  -166.7276 -6.1243 16.7128
v  -250.0914 -6.1243 16.7128
v  -250.0914 -6.1243 18.9444
v  -166.7276 -6.1243 18.9444
v  -166.7276 -6.1243 14.4811
v  -250.0914 -6.1243 14.4811
v  -166.7276 -6.1243 12.2494
v  -250.0914 -6.1243 12.2494
v  -166.7276 -6.1243 10.0177
v  -250.0914 -6.1243 10.0177
v  -166.7276 -6.1243 7.7861
v  -250.0914 -6.1243 7.7861
v  -166.7276 -6.1243 5.5544
v  -250.0914 -6.1243 5.5544
v  -166.7276 -2.7944 4.7048
v  -250.0914 -2.7944 4.7048
v  -166.7276 0.5354 3.8553
v  -250.0914 0.5354 3.8553
v  -166.7276 3.8653 3.0057
v  -250.0914 3.8653 3.0057
v  -166.7276 7.1952 2.1562
v  -250.0914 7.1952 2.1562
v  -166.7276 10.5251 1.3066
v  -250.0914 10.5251 1.3066
v  -166.7276 13.8550 0.4570
v  -250.0914 13.8550 0.4570
v  -166.7276 10.5306 -0.3619
v  -250.0914 10.5306 -0.3619
v  -166.7276 7.2063 -1.1808
v  -250.0914 7.2063 -1.1808
v  -166.7276 3.8820 -1.9997
v  -250.0914 3.8820 -1.9997
v  -166.7276 0.5577 -2.8186
v  -250.0914 0.5577 -2.8186
v  -166.7276 -2.7666 -3.6375
v  -250.0914 -2.7666 -3.6375
v  -166.7276 -6.0910 -4.4564
v  -250.0914 -6.0910 -4.4564
v  -166.7276 -6.0910 -6.8806
v  -250.0914 -6.0910 -6.8806
v  -166.7276 -6.0910 -9.3048
v  -250.0914 -6.0910 -9.3048
v  -166.7276 -6.0910 -11.7291
v  -250.0914 -6.0910 -11.7291
v  -166.7276 -6.0910 -14.1533
v  -250.0914 -6.0910 -14.1533
v  -166.7276 -6.0910 -16.5775
v  -250.0914 -6.0910 -16.5775
v  -166.7276 -6.0910 -19.0017
v  -250.0914 -6.0910 -19.0017
v  -83.3638 -6.1243 16.7128
v  -83.3638 -6.1243 18.9444
v  -83.3638 -6.1243 14.4811
v  -83.3638 -6.1243 12.2494
v  -83.3638 -6.1243 10.0177
v  -83.3638 -6.1243 7.7861
v  -83.3638 -6.1243 5.5544
v  -83.3638 -2.7944 4.7048
v  -83.3638 0.5354 3.8553
v  -83.3638 3.8653 3.0057
v  -83.3638 7.1952 2.1562
v  -83.3638 10.5251 1.3066
v  -83.3638 13.8550 0.4570
v  -83.3638 10.5306 -0.3619
v  -83.3638 7.2063 -1.1808
v  -83.3638 3.8820 -1.9997
v  -83.3638 0.5577 -2.8186
v  -83.3638 -2.7666 -3.6375
v  -83.3638 -6.0910 -4.4564
v  -83.3638 -6.0910 -6.8806
v  -83.3638 -6.0910 -9.3048
v  -83.3638 -6.0910 -11.7291
v  -83.3638 -6.0910 -14.1533
v  -83.3638 -6.0910 -16.5775
v  -83.3638 -6.0910 -19.0017
v  -0.0000 -6.1243 16.7128
v  -0.0000 -6.1243 18.9444
v  -0.0000 -6.1243 14.4811
v  -0.0000 -6.1243 12.2494
v  -0.0000 -6.1243 10.0177
v  -0.0000 -6.1243 7.7861
v  -0.0000 -6.1243 5.5544
v  -0.0000 -2.7944 4.7048
v  -0.0000 0.5354 3.8553
v  -0.0000 3.8653 3.0057
v  -0.0000 7.1952 2.1562
v  -0.0000 10.5251 1.3066
v  -0.0000 13.8550 0.4570
v  -0.0000 10.5306 -0.3619
v  -0.0000 7.2063 -1.1808
v  -0.0000 3.8820 -1.9997
v  -0.0000 0.5577 -2.8186
v  -0.0000 -2.7666 -3.6375
v  -0.0000 -6.0910 -4.4564
v  -0.0000 -6.0910 -6.8806
v  -0.0000 -6.0910 -9.3048
v  -0.0000 -6.0910 -11.7291
v  -0.0000 -6.0910 -14.1533
v  -0.0000 -6.0910 -16.5775
v  -0.0000 -6.0910 -19.0017
v  83.3638 -6.1243 16.7128
v  83.3638 -6.1243 18.9444
v  83.3638 -6.1243 14.4811
v  83.3638 -6.1243 12.2494
v  83.3638 -6.1243 10.0177
v  83.3638 -6.1243 7.7861
v  83.3638 -6.1243 5.5544
v  83.3638 -2.7944 4.7048
v  83.3638 0.5354 3.8553
v  83.3638 3.8653 3.0057
v  83.3638 7.1952 2.1562
v  83.3638 10.5251 1.3066
v  83.3638 13.8550 0.4570
v  83.3638 10.5306 -0.3619
v  83.3638 7.2063 -1.1808
v  83.3638 3.8820 -1.9997
v  83.3638 0.5577 -2.8186
v  83.3638 -2.7666 -3.6375
v  83.3638 -6.0910 -4.4564
v  83.3638 -6.0910 -6.8806
v  83.3638 -6.0910 -9.3048
v  83.3638 -6.0910 -11.7291
v  83.3638 -6.0910 -14.1533
v  83.3638 -6.0910 -16.5775
v  83.3638 -6.0910 -19.0017
v  166.7276 -6.1243 16.7128
v  166.7276 -6.1243 18.9444
v  166.7276 -6.1243 14.4811
v  166.7276 -6.1243 12.2494
v  166.7276 -6.1243 10.0177
v  166.7276 -6.1243 7.7861
v  166.7276 -6.1243 5.5544
v  166.7276 -2.7944 4.7048
v  166.7276 0.5354 3.8553
v  166.7276 3.8653 3.0057
v  166.7276 7.1952 2.1562
v  166.7276 10.5251 1.3066
v  166.7276 13.8550 0.4570
v  166.7276 10.5306 -0.3619
v  166.7276 7.2063 -1.1808
v  166.7276 3.8820 -1.9997
v  166.7276 0.5577 -2.8186
v  166.7276 -2.7666 -3.6375
v  166.7276 -6.0910 -4.4564
v  166.7276 -6.0910 -6.8806
v  166.7276 -6.0910 -9.3048
v  166.7276 -6.0910 -11.7291
v  166.7276 -6.0910 -14.1533
v  166.7276 -6.0910 -16.5775
v  166.7276 -6.0910 -19.0017
v  250.0914 -6.1243 16.7128
v  250.0914 -6.1243 18.9444
v  250.0914 -6.1243 14.4811
v  250.0914 -6.1243 12.2494
v  250.0914 -6.1243 10.0177
v  250.0914 -6.1243 7.7861
v  250.0914 -6.1243 5.5544
v  250.0914 -2.7944 4.7048
v  250.0914 0.5354 3.8553
v  250.0914 3.8653 3.0057
v  250.0914 7.1952 2.1562
v  250.0914 10.5251 1.3066
v  250.0914 13.8550 0.4570
v  250.0914 10.5306 -0.3619
v  250.0914 7.2063 -1.1808
v  250.0914 3.8820 -1.9997
v  250.0914 0.5577 -2.8186
v  250.0914 -2.7666 -3.6375
v  250.0914 -6.0910 -4.4564
v  250.0914 -6.0910 -6.8806
v  250.0914 -6.0910 -9.3048
v  250.0914 -6.0910 -11.7291
v  250.0914 -6.0910 -14.1533
v  250.0914 -6.0910 -16.5775
v  250.0914 -6.0910 -19.0017
# 350 vertices

vn 0.0000 -1.0000 -0.0000
vn 0.0000 -1.0000 0.0000
vn 0.0000 -0.9993 -0.0376
vn 0.0000 -0.9972 -0.0751
vn -0.0000 -0.2981 -0.9545
vn -0.0000 -0.2728 -0.9621
vn -0.0000 -0.2472 -0.9690
vn 0.0000 -0.0962 -0.9954
vn -0.0000 -0.0962 -0.9954
vn 0.0000 0.0572 -0.9984
vn -0.0000 0.0572 -0.9984
vn 0.0000 0.0669 0.9978
vn -0.0000 -0.0872 0.9962
vn -0.0000 0.0669 0.9978
vn -0.0000 -0.2392 0.9710
vn -0.0000 -0.2652 0.9642
vn -0.0000 -0.2909 0.9567
vn 0.0000 -0.9975 0.0711
vn 0.0000 -0.9994 0.0356
vn 0.0000 -0.2728 -0.9621
vn 0.0000 -0.2981 -0.9545
vn 0.0000 -0.2472 -0.9690
vn 0.0000 -0.2392 0.9710
vn 0.0000 -0.2652 0.9642
vn 0.0000 -0.2909 0.9567
vn -0.0000 -0.9993 -0.0376
vn -0.0000 -0.9972 -0.0751
vn 0.0000 -0.0872 0.9962
vn -0.0000 -1.0000 -0.0000
vn -0.0000 -1.0000 0.0000
vn -0.0000 -0.9994 0.0356
vn -0.0000 -0.9975 0.0711
vn -0.0000 1.0000 0.0000
vn -0.0000 1.0000 -0.0000
vn 0.0000 0.2472 0.9690
vn 0.0000 0.2392 -0.9710
vn 0.0000 1.0000 0.0000
vn 0.0000 1.0000 -0.0000
vn -0.0000 0.2472 0.9690
vn -0.0000 0.2392 -0.9710
vn -1.0000 0.0000 -0.0000
vn 0.0000 0.0000 1.0000
vn 0.0000 0.0000 -1.0000
vn -0.0000 0.0000 1.0000
vn -0.0000 0.0000 -1.0000
vn 1.0000 0.0000 -0.0000
# 46 vertex normals

g Loft002
usemtl Material__2
s 257
f 1//1 2//1 3//1 4//1 
s 515
f 2//1 5//2 6//2 3//1 
s 1026
f 5//2 7//2 8//2 6//2 
s 514
f 7//2 9//1 10//1 8//2 
s 1026
f 9//1 11//3 12//3 10//1 
s 514
f 11//3 13//4 14//4 12//3 
s 1028
f 13//5 15//6 16//6 14//5 
s 516
f 15//6 17//7 18//7 16//6 
s 1028
f 17//7 19//7 20//7 18//7 
s 516
f 19//7 21//7 22//7 20//7 
s 1028
f 21//7 23//8 24//9 22//7 
s 516
f 23//8 25//10 26//11 24//9 
s 1026
f 25//12 27//13 28//13 26//14 
s 514
f 27//13 29//15 30//15 28//13 
s 1026
f 29//15 31//15 32//15 30//15 
s 514
f 31//15 33//15 34//15 32//15 
s 1026
f 33//15 35//16 36//16 34//15 
s 514
f 35//16 37//17 38//17 36//16 
s 1028
f 37//18 39//19 40//19 38//18 
s 516
f 39//19 41//2 42//2 40//19 
s 1028
f 41//2 43//2 44//2 42//2 
s 516
f 43//2 45//2 46//2 44//2 
s 1028
f 45//2 47//1 48//2 46//2 
s 516
f 47//1 49//1 50//1 48//2 
s 264
f 4//1 3//1 51//1 52//1 
s 536
f 3//1 6//2 53//2 51//1 
s 1040
f 6//2 8//2 54//2 53//2 
s 528
f 8//2 10//1 55//1 54//2 
s 1040
f 10//1 12//3 56//3 55//1 
s 528
f 12//3 14//4 57//4 56//3 
s 1056
f 14//5 16//6 58//20 57//21 
s 544
f 16//6 18//7 59//22 58//20 
s 1056
f 18//7 20//7 60//22 59//22 
s 544
f 20//7 22//7 61//22 60//22 
s 1056
f 22//7 24//9 62//8 61//22 
s 544
f 24//9 26//11 63//10 62//8 
s 1040
f 26//14 28//13 64//13 63//14 
s 528
f 28//13 30//15 65//15 64//13 
s 1040
f 30//15 32//15 66//23 65//15 
s 528
f 32//15 34//15 67//23 66//23 
s 1040
f 34//15 36//16 68//24 67//23 
s 528
f 36//16 38//17 69//25 68//24 
s 1056
f 38//18 40//19 70//19 69//18 
s 544
f 40//19 42//2 71//2 70//19 
s 1056
f 42//2 44//2 72//2 71//2 
s 544
f 44//2 46//2 73//2 72//2 
s 1056
f 46//2 48//2 74//2 73//2 
s 544
f 48//2 50//1 75//1 74//2 
s 257
f 52//1 51//1 76//1 77//1 
s 515
f 51//1 53//2 78//2 76//1 
s 1026
f 53//2 54//2 79//2 78//2 
s 514
f 54//2 55//1 80//1 79//2 
s 1026
f 55//1 56//3 81//26 80//1 
s 514
f 56//3 57//4 82//27 81//26 
s 1028
f 57//21 58//20 83//20 82//21 
s 516
f 58//20 59//22 84//22 83//20 
s 1028
f 59//22 60//22 85//22 84//22 
s 516
f 60//22 61//22 86//7 85//22 
s 1028
f 61//22 62//8 87//8 86//7 
s 516
f 62//8 63//10 88//10 87//8 
s 1026
f 63//14 64//13 89//28 88//12 
s 514
f 64//13 65//15 90//15 89//28 
s 1026
f 65//15 66//23 91//15 90//15 
s 514
f 66//23 67//23 92//15 91//15 
s 1026
f 67//23 68//24 93//24 92//15 
s 514
f 68//24 69//25 94//25 93//24 
s 1028
f 69//18 70//19 95//19 94//18 
s 516
f 70//19 71//2 96//2 95//19 
s 1028
f 71//2 72//2 97//2 96//2 
s 516
f 72//2 73//2 98//2 97//2 
s 1028
f 73//2 74//2 99//2 98//2 
s 516
f 74//2 75//1 100//1 99//2 
s 264
f 77//1 76//1 101//1 102//1 
s 536
f 76//1 78//2 103//2 101//1 
s 1040
f 78//2 79//2 104//2 103//2 
s 528
f 79//2 80//1 105//1 104//2 
s 1040
f 80//1 81//26 106//3 105//1 
s 528
f 81//26 82//27 107//27 106//3 
s 1056
f 82//21 83//20 108//6 107//5 
s 544
f 83//20 84//22 109//22 108//6 
s 1056
f 84//22 85//22 110//22 109//22 
s 544
f 85//22 86//7 111//22 110//22 
s 1056
f 86//7 87//8 112//9 111//22 
s 544
f 87//8 88//10 113//11 112//9 
s 1040
f 88//12 89//28 114//28 113//12 
s 528
f 89//28 90//15 115//23 114//28 
s 1040
f 90//15 91//15 116//23 115//23 
s 528
f 91//15 92//15 117//23 116//23 
s 1040
f 92//15 93//24 118//16 117//23 
s 528
f 93//24 94//25 119//17 118//16 
s 1056
f 94//18 95//19 120//19 119//18 
s 544
f 95//19 96//2 121//2 120//19 
s 1056
f 96//2 97//2 122//2 121//2 
s 544
f 97//2 98//2 123//2 122//2 
s 1056
f 98//2 99//2 124//2 123//2 
s 544
f 99//2 100//1 125//1 124//2 
s 257
f 102//1 101//1 126//29 127//29 
s 515
f 101//1 103//2 128//30 126//29 
s 1026
f 103//2 104//2 129//30 128//30 
s 514
f 104//2 105//1 130//29 129//30 
s 1026
f 105//1 106//3 131//26 130//29 
s 514
f 106//3 107//27 132//4 131//26 
s 1028
f 107//5 108//6 133//20 132//21 
s 516
f 108//6 109//22 134//22 133//20 
s 1028
f 109//22 110//22 135//22 134//22 
s 516
f 110//22 111//22 136//22 135//22 
s 1028
f 111//22 112//9 137//8 136//22 
s 516
f 112//9 113//11 138//10 137//8 
s 1026
f 113//12 114//28 139//28 138//14 
s 514
f 114//28 115//23 140//23 139//28 
s 1026
f 115//23 116//23 141//23 140//23 
s 514
f 116//23 117//23 142//23 141//23 
s 1026
f 117//23 118//16 143//24 142//23 
s 514
f 118//16 119//17 144//25 143//24 
s 1028
f 119//18 120//19 145//31 144//32 
s 516
f 120//19 121//2 146//30 145//31 
s 1028
f 121//2 122//2 147//30 146//30 
s 516
f 122//2 123//2 148//30 147//30 
s 1028
f 123//2 124//2 149//30 148//30 
s 516
f 124//2 125//1 150//29 149//30 
s 264
f 127//29 126//29 151//29 152//29 
s 536
f 126//29 128//30 153//30 151//29 
s 1040
f 128//30 129//30 154//30 153//30 
s 528
f 129//30 130//29 155//29 154//30 
s 1040
f 130//29 131//26 156//26 155//29 
s 528
f 131//26 132//4 157//27 156//26 
s 1056
f 132//21 133//20 158//20 157//21 
s 544
f 133//20 134//22 159//22 158//20 
s 1056
f 134//22 135//22 160//22 159//22 
s 544
f 135//22 136//22 161//22 160//22 
s 1056
f 136//22 137//8 162//8 161//22 
s 544
f 137//8 138//10 163//10 162//8 
s 1040
f 138//14 139//28 164//13 163//14 
s 528
f 139//28 140//23 165//23 164//13 
s 1040
f 140//23 141//23 166//23 165//23 
s 528
f 141//23 142//23 167//23 166//23 
s 1040
f 142//23 143//24 168//24 167//23 
s 528
f 143//24 144//25 169//25 168//24 
s 1056
f 144//32 145//31 170//31 169//32 
s 544
f 145//31 146//30 171//30 170//31 
s 1056
f 146//30 147//30 172//30 171//30 
s 544
f 147//30 148//30 173//30 172//30 
s 1056
f 148//30 149//30 174//29 173//30 
s 544
f 149//30 150//29 175//29 174//29 
s 257
f 176//33 177//33 178//34 179//34 
s 515
f 180//34 181//34 177//33 176//33 
s 1026
f 182//34 183//34 181//34 180//34 
s 514
f 184//34 185//34 183//34 182//34 
s 1026
f 186//33 187//33 185//34 184//34 
s 514
f 188//33 189//33 187//33 186//33 
s 1028
f 190//35 191//35 189//35 188//35 
s 516
f 192//35 193//35 191//35 190//35 
s 1028
f 194//35 195//35 193//35 192//35 
s 516
f 196//35 197//35 195//35 194//35 
s 1028
f 198//35 199//35 197//35 196//35 
s 516
f 200//35 201//35 199//35 198//35 
s 1026
f 202//36 203//36 201//36 200//36 
s 514
f 204//36 205//36 203//36 202//36 
s 1026
f 206//36 207//36 205//36 204//36 
s 514
f 208//36 209//36 207//36 206//36 
s 1026
f 210//36 211//36 209//36 208//36 
s 514
f 212//36 213//36 211//36 210//36 
s 1028
f 214//33 215//33 213//33 212//33 
s 516
f 216//34 217//34 215//33 214//33 
s 1028
f 218//34 219//34 217//34 216//34 
s 516
f 220//34 221//34 219//34 218//34 
s 1028
f 222//34 223//33 221//34 220//34 
s 516
f 224//33 225//33 223//33 222//34 
s 264
f 226//37 176//33 179//34 227//38 
s 536
f 228//38 180//34 176//33 226//37 
s 1040
f 229//38 182//34 180//34 228//38 
s 528
f 230//38 184//34 182//34 229//38 
s 1040
f 231//37 186//33 184//34 230//38 
s 528
f 232//37 188//33 186//33 231//37 
s 1056
f 233//35 190//35 188//35 232//35 
s 544
f 234//35 192//35 190//35 233//35 
s 1056
f 235//35 194//35 192//35 234//35 
s 544
f 236//35 196//35 194//35 235//35 
s 1056
f 237//35 198//35 196//35 236//35 
s 544
f 238//35 200//35 198//35 237//35 
s 1040
f 239//36 202//36 200//36 238//36 
s 528
f 240//36 204//36 202//36 239//36 
s 1040
f 241//36 206//36 204//36 240//36 
s 528
f 242//36 208//36 206//36 241//36 
s 1040
f 243//36 210//36 208//36 242//36 
s 528
f 244//36 212//36 210//36 243//36 
s 1056
f 245//37 214//33 212//33 244//37 
s 544
f 246//38 216//34 214//33 245//37 
s 1056
f 247//38 218//34 216//34 246//38 
s 544
f 248//38 220//34 218//34 247//38 
s 1056
f 249//38 222//34 220//34 248//38 
s 544
f 250//37 224//33 222//34 249//38 
s 257
f 251//37 226//37 227//38 252//38 
s 515
f 253//38 228//38 226//37 251//37 
s 1026
f 254//38 229//38 228//38 253//38 
s 514
f 255//38 230//38 229//38 254//38 
s 1026
f 256//37 231//37 230//38 255//38 
s 514
f 257//37 232//37 231//37 256//37 
s 1028
f 258//35 233//35 232//35 257//35 
s 516
f 259//35 234//35 233//35 258//35 
s 1028
f 260//35 235//35 234//35 259//35 
s 516
f 261//35 236//35 235//35 260//35 
s 1028
f 262//35 237//35 236//35 261//35 
s 516
f 263//35 238//35 237//35 262//35 
s 1026
f 264//36 239//36 238//36 263//36 
s 514
f 265//36 240//36 239//36 264//36 
s 1026
f 266//36 241//36 240//36 265//36 
s 514
f 267//36 242//36 241//36 266//36 
s 1026
f 268//36 243//36 242//36 267//36 
s 514
f 269//36 244//36 243//36 268//36 
s 1028
f 270//37 245//37 244//37 269//37 
s 516
f 271//38 246//38 245//37 270//37 
s 1028
f 272//38 247//38 246//38 271//38 
s 516
f 273//38 248//38 247//38 272//38 
s 1028
f 274//38 249//38 248//38 273//38 
s 516
f 275//37 250//37 249//38 274//38 
s 264
f 276//37 251//37 252//38 277//38 
s 536
f 278//38 253//38 251//37 276//37 
s 1040
f 279//38 254//38 253//38 278//38 
s 528
f 280//38 255//38 254//38 279//38 
s 1040
f 281//37 256//37 255//38 280//38 
s 528
f 282//37 257//37 256//37 281//37 
s 1056
f 283//35 258//35 257//35 282//35 
s 544
f 284//35 259//35 258//35 283//35 
s 1056
f 285//35 260//35 259//35 284//35 
s 544
f 286//35 261//35 260//35 285//35 
s 1056
f 287//35 262//35 261//35 286//35 
s 544
f 288//35 263//35 262//35 287//35 
s 1040
f 289//36 264//36 263//36 288//36 
s 528
f 290//36 265//36 264//36 289//36 
s 1040
f 291//36 266//36 265//36 290//36 
s 528
f 292//36 267//36 266//36 291//36 
s 1040
f 293//36 268//36 267//36 292//36 
s 528
f 294//36 269//36 268//36 293//36 
s 1056
f 295//37 270//37 269//37 294//37 
s 544
f 296//38 271//38 270//37 295//37 
s 1056
f 297//38 272//38 271//38 296//38 
s 544
f 298//38 273//38 272//38 297//38 
s 1056
f 299//38 274//38 273//38 298//38 
s 544
f 300//37 275//37 274//38 299//38 
s 257
f 301//37 276//37 277//38 302//38 
s 515
f 303//38 278//38 276//37 301//37 
s 1026
f 304//38 279//38 278//38 303//38 
s 514
f 305//38 280//38 279//38 304//38 
s 1026
f 306//37 281//37 280//38 305//38 
s 514
f 307//37 282//37 281//37 306//37 
s 1028
f 308//39 283//35 282//35 307//39 
s 516
f 309//39 284//35 283//35 308//39 
s 1028
f 310//39 285//35 284//35 309//39 
s 516
f 311//39 286//35 285//35 310//39 
s 1028
f 312//39 287//35 286//35 311//39 
s 516
f 313//39 288//35 287//35 312//39 
s 1026
f 314//40 289//36 288//36 313//40 
s 514
f 315//40 290//36 289//36 314//40 
s 1026
f 316//40 291//36 290//36 315//40 
s 514
f 317//40 292//36 291//36 316//40 
s 1026
f 318//40 293//36 292//36 317//40 
s 514
f 319//40 294//36 293//36 318//40 
s 1028
f 320//37 295//37 294//37 319//37 
s 516
f 321//38 296//38 295//37 320//37 
s 1028
f 322//38 297//38 296//38 321//38 
s 516
f 323//38 298//38 297//38 322//38 
s 1028
f 324//38 299//38 298//38 323//38 
s 516
f 325//37 300//37 299//38 324//38 
s 264
f 326//37 301//37 302//38 327//38 
s 536
f 328//38 303//38 301//37 326//37 
s 1040
f 329//38 304//38 303//38 328//38 
s 528
f 330//38 305//38 304//38 329//38 
s 1040
f 331//37 306//37 305//38 330//38 
s 528
f 332//37 307//37 306//37 331//37 
s 1056
f 333//39 308//39 307//39 332//39 
s 544
f 334//39 309//39 308//39 333//39 
s 1056
f 335//39 310//39 309//39 334//39 
s 544
f 336//39 311//39 310//39 335//39 
s 1056
f 337//39 312//39 311//39 336//39 
s 544
f 338//39 313//39 312//39 337//39 
s 1040
f 339//40 314//40 313//40 338//40 
s 528
f 340//40 315//40 314//40 339//40 
s 1040
f 341//40 316//40 315//40 340//40 
s 528
f 342//40 317//40 316//40 341//40 
s 1040
f 343//40 318//40 317//40 342//40 
s 528
f 344//40 319//40 318//40 343//40 
s 1056
f 345//37 320//37 319//37 344//37 
s 544
f 346//38 321//38 320//37 345//37 
s 1056
f 347//38 322//38 321//38 346//38 
s 544
f 348//38 323//38 322//38 347//38 
s 1056
f 349//37 324//38 323//38 348//38 
s 544
f 350//37 325//37 324//38 349//37 
s 8
f 2//41 1//41 178//41 177//41 
s 2
f 1//42 4//42 179//42 178//42 
s 8
f 5//41 2//41 177//41 181//41 
f 7//41 5//41 181//41 183//41 
f 9//41 7//41 183//41 185//41 
f 11//41 9//41 185//41 187//41 
f 13//41 11//41 187//41 189//41 
f 15//41 13//41 189//41 191//41 
f 17//41 15//41 191//41 193//41 
f 19//41 17//41 193//41 195//41 
f 21//41 19//41 195//41 197//41 
f 23//41 21//41 197//41 199//41 
f 25//41 23//41 199//41 201//41 
s 9
f 27//41 25//41 201//41 203//41 
s 8
f 29//41 27//41 203//41 205//41 
f 31//41 29//41 205//41 207//41 
f 33//41 31//41 207//41 209//41 
f 35//41 33//41 209//41 211//41 
f 37//41 35//41 211//41 213//41 
f 39//41 37//41 213//41 215//41 
f 41//41 39//41 215//41 217//41 
f 43//41 41//41 217//41 219//41 
f 45//41 43//41 219//41 221//41 
f 47//41 45//41 221//41 223//41 
f 49//41 47//41 223//41 225//41 
s 1
f 50//43 49//43 225//43 224//43 
s 2
f 4//42 52//42 227//42 179//42 
s 1
f 75//43 50//43 224//43 250//43 
s 2
f 52//42 77//42 252//42 227//42 
s 1
f 100//43 75//43 250//43 275//43 
s 2
f 77//42 102//42 277//42 252//42 
s 1
f 125//43 100//43 275//43 300//43 
s 2
f 102//42 127//44 302//44 277//42 
s 1
f 150//45 125//43 300//43 325//45 
f 152//46 151//46 326//46 327//46 
s 2
f 127//44 152//44 327//44 302//44 
s 1
f 151//46 153//46 328//46 326//46 
f 153//46 154//46 329//46 328//46 
f 154//46 155//46 330//46 329//46 
f 155//46 156//46 331//46 330//46 
f 156//46 157//46 332//46 331//46 
f 157//46 158//46 333//46 332//46 
f 158//46 159//46 334//46 333//46 
f 159//46 160//46 335//46 334//46 
f 160//46 161//46 336//46 335//46 
f 161//46 162//46 337//46 336//46 
s 3
f 162//46 163//41 338//46 337//46 
s 4
f 163//46 164//46 339//46 338//46 
f 164//46 165//46 340//46 339//46 
f 165//46 166//46 341//46 340//46 
f 166//46 167//46 342//46 341//46 
f 167//46 168//46 343//46 342//46 
f 168//46 169//46 344//46 343//46 
f 169//46 170//46 345//46 344//46 
f 170//46 171//46 346//46 345//46 
f 171//46 172//46 347//46 346//46 
f 172//46 173//46 348//46 347//46 
f 173//46 174//46 349//46 348//46 
s 1
f 175//45 150//45 325//45 350//45 
s 4
f 174//46 175//46 350//46 349//46 
# 348 polygons

