# 3ds Max Wavefront OBJ Exporter v0.97b - (c)2007 guruware
# File Created: 04.06.2015 00:56:27

mtllib kosynka_na_tranec.mtl

#
# object Line002
#

v  -4.3620 0.4969 -16.9894
v  -4.2588 0.5819 -17.0492
v  -4.1889 0.6056 -17.0664
v  -4.3906 -0.4745 -16.3205
v  4.2686 0.5793 -17.1592
v  4.3650 0.4938 -17.1064
v  4.3912 0.4342 -17.0690
v  4.1994 0.6044 -17.1742
v  4.3381 -0.4736 -16.4939
v  -4.3908 0.4394 -16.9494
v  4.2404 -0.5665 -16.3593
v  -4.1141 -0.5662 -7.8231
v  -4.3912 -0.5662 -7.9362
v  -1.9855 -0.5663 -12.7863
v  -2.2062 -0.5663 -12.5232
v  -2.0727 -0.5663 -12.6353
v  -2.3701 -0.5663 -12.4636
v  4.3297 -0.5177 -16.4607
v  -4.3907 -0.5162 -16.2849
v  4.3105 -0.5465 -16.4276
v  -4.3909 -0.5439 -16.2456
v  4.2807 -0.5621 -16.3944
v  -4.3910 -0.5606 -16.2005
v  -4.3912 -0.5663 -16.1459
v  -4.1895 0.5834 -17.0989
v  -4.2592 0.5596 -17.0817
v  -4.3624 0.4746 -17.0218
v  -4.3912 0.4171 -16.9819
v  -4.3912 -0.4985 -16.3517
v  4.3376 -0.4959 -16.5263
v  4.3908 0.4131 -17.1022
v  4.2682 0.5582 -17.1925
v  4.1990 0.5834 -17.2075
v  4.3645 0.4727 -17.1396
v  -4.1141 -0.6056 -7.8231
v  -2.0727 -0.6056 -12.6353
v  -2.2062 -0.6056 -12.5232
v  -2.3701 -0.6056 -12.4636
v  -4.3912 -0.5454 -16.3113
v  4.3291 -0.5439 -16.4901
v  -4.3912 -0.5788 -16.2639
v  4.3100 -0.5782 -16.4509
v  -4.3912 -0.5989 -16.2095
v  4.2804 -0.5987 -16.4089
v  -4.3912 -0.6056 -16.1480
v  4.2402 -0.6056 -16.3639
v  -4.3912 -0.6056 -7.9362
v  -1.9855 -0.5663 -13.1296
v  -1.9552 -0.5663 -12.9580
v  -1.9552 -0.6056 -12.9580
v  -1.9855 -0.6056 -13.1296
v  -1.9855 -0.6056 -12.7863
v  -2.5444 -0.5663 -12.4636
v  -2.5444 -0.6056 -12.4636
v  -2.7082 -0.5663 -12.5232
v  -2.7082 -0.6056 -12.5232
v  -2.8418 -0.5663 -12.6353
v  -2.8418 -0.6056 -12.6353
v  -2.9290 -0.5663 -12.7863
v  -2.9290 -0.6056 -12.7863
v  -2.9592 -0.5663 -12.9580
v  -2.9592 -0.6056 -12.9580
v  -2.9290 -0.5663 -13.1296
v  -2.9290 -0.6056 -13.1296
v  -2.8418 -0.5663 -13.2806
v  -2.8418 -0.6056 -13.2806
v  -2.7082 -0.5663 -13.3927
v  -2.7082 -0.6056 -13.3927
v  -2.5444 -0.5663 -13.4523
v  -2.5444 -0.6056 -13.4523
v  -2.3701 -0.5663 -13.4523
v  -2.3701 -0.6056 -13.4523
v  -2.2062 -0.5663 -13.3927
v  -2.2062 -0.6056 -13.3927
v  -2.0727 -0.5663 -13.2806
v  -2.0727 -0.6056 -13.2806
# 76 vertices

vn 0.0107 0.5669 0.8237
vn 0.0139 0.5647 0.8252
vn 0.0154 0.6089 0.7931
vn 0.0109 0.5347 0.8450
vn 0.0137 0.5666 0.8239
vn 0.0108 0.5669 0.8237
vn 0.0024 0.9953 0.0966
vn 0.0000 1.0000 -0.0000
vn 0.0154 0.6628 0.7486
vn 0.0135 0.7393 0.6732
vn 0.0129 0.8028 0.5962
vn 0.0097 0.8857 0.4641
vn 0.0084 0.9310 0.3649
vn 0.0050 0.9744 0.2247
vn 0.0012 0.9987 0.0513
vn -0.0139 -0.5648 -0.8251
vn -0.0107 -0.5669 -0.8237
vn -0.0154 -0.6107 -0.7917
vn -0.0137 -0.5674 -0.8233
vn -0.0109 -0.5347 -0.8450
vn 0.0000 -1.0000 -0.0000
vn -0.0134 -0.7410 -0.6713
vn -0.0155 -0.6650 -0.7467
vn -0.0096 -0.8857 -0.4641
vn -0.0129 -0.8047 -0.5935
vn -0.0049 -0.9738 -0.2273
vn -0.0085 -0.9299 -0.3677
vn -0.0012 -0.9986 -0.0534
vn -0.0029 -0.9933 -0.1158
vn 0.5673 0.6925 -0.4456
vn 0.8468 0.4444 -0.2922
vn 0.9881 0.1238 -0.0912
vn 0.9881 0.1238 -0.0911
vn -0.9999 0.0093 0.0122
vn -0.9809 0.1659 -0.1015
vn -0.9809 0.1659 -0.1014
vn -0.9999 0.0093 0.0118
vn -0.8329 0.4608 -0.3064
vn -0.5588 0.6868 -0.4648
vn -0.5586 0.6866 -0.4653
vn -0.2016 0.8099 -0.5509
vn -0.2007 0.8097 -0.5515
vn 0.9951 -0.0867 0.0469
vn 0.9949 -0.0903 0.0457
vn 0.1952 0.8276 -0.5263
vn 0.7315 -0.0810 0.6770
vn 0.7149 -0.0000 0.6993
vn 0.7149 -0.0002 0.6993
vn 0.7149 -0.1183 0.6892
vn -0.3776 -0.0000 0.9260
vn -1.0000 0.0000 -0.0000
vn -1.0000 0.0020 -0.0007
vn -1.0000 0.0013 -0.0013
vn -0.9999 0.0105 0.0090
vn -0.9999 0.0101 0.0076
vn 0.9660 -0.1922 0.1728
vn 0.9607 -0.2189 0.1709
vn -0.9999 0.0096 0.0042
vn -1.0000 0.0086 0.0021
vn 0.8833 -0.2620 0.3887
vn 0.8595 -0.3252 0.3943
vn -1.0000 0.0060 0.0004
vn -1.0000 0.0046 -0.0013
vn 0.7773 -0.2044 0.5950
vn 0.7366 -0.2837 0.6140
vn -0.9397 -0.0000 0.3420
vn -1.0000 -0.0000 -0.0000
vn -0.9397 0.0000 -0.3420
vn -0.7660 0.0000 -0.6428
vn -0.5000 0.0000 -0.8660
vn -0.1736 0.0000 -0.9848
vn 0.1737 0.0000 -0.9848
vn 0.1736 0.0000 -0.9848
vn 0.5000 0.0000 -0.8660
vn 0.7660 0.0000 -0.6428
vn 0.9397 0.0000 -0.3420
vn 1.0000 0.0000 -0.0000
vn 1.0000 -0.0000 0.0000
vn 0.9397 -0.0000 0.3420
vn 0.7660 -0.0000 0.6428
vn 0.5000 -0.0000 0.8660
vn 0.1737 -0.0000 0.9848
vn 0.1736 -0.0000 0.9848
vn -0.1736 -0.0000 0.9848
vn -0.5000 -0.0000 0.8660
vn -0.7660 -0.0000 0.6428
# 86 vertex normals

vt 1.0000 1.0000 1.0000
vt 2.1904 1.6783 1.0000
vt 2.3656 1.6783 1.0000
vt 2.3656 1.6390 1.0000
vt 2.1904 1.6390 1.0000
vt 2.5408 1.6783 1.0000
vt 2.5408 1.6390 1.0000
vt 2.7161 1.6783 1.0000
vt 2.7161 1.6390 1.0000
vt 2.8913 1.6783 1.0000
vt 2.8913 1.6390 1.0000
vt 3.0665 1.6783 1.0000
vt 3.0665 1.6390 1.0000
vt -0.0876 1.6783 1.0000
vt 0.0876 1.6783 1.0000
vt 0.0876 1.6390 1.0000
vt -0.0876 1.6390 1.0000
vt 0.2628 1.6783 1.0000
vt 0.2628 1.6390 1.0000
vt 0.4381 1.6783 1.0000
vt 0.4381 1.6390 1.0000
vt 0.6133 1.6783 1.0000
vt 0.6133 1.6390 1.0000
vt 0.7885 1.6783 1.0000
vt 0.7885 1.6390 1.0000
vt 0.9638 1.6783 1.0000
vt 0.9638 1.6390 1.0000
vt 1.1390 1.6783 1.0000
vt 1.1390 1.6390 1.0000
vt 1.3142 1.6783 1.0000
vt 1.3142 1.6390 1.0000
vt 1.4895 1.6783 1.0000
vt 1.4895 1.6390 1.0000
vt 1.6647 1.6783 1.0000
vt 1.6647 1.6390 1.0000
vt 1.8399 1.6783 1.0000
vt 1.8399 1.6390 1.0000
vt 2.0151 1.6783 1.0000
vt 2.0151 1.6390 1.0000
# 39 texture coords

g Line002
usemtl Material__3
s 1
f 4/1/3 3/1/2 2/1/1 1/1/1 
f 8/1/4 7/1/4 6/1/4 5/1/4 
f 3/1/2 9/1/5 7/1/4 8/1/4 
f 4/1/3 9/1/5 3/1/2 
f 10/1/6 4/1/3 1/1/1 
f 14/1/8 13/1/8 12/1/8 11/1/7 
f 17/1/8 13/1/8 16/1/8 15/1/8 
f 4/1/3 19/1/10 18/1/9 9/1/5 
f 19/1/10 21/1/12 20/1/11 18/1/9 
f 21/1/12 23/1/14 22/1/13 20/1/11 
f 23/1/14 24/1/15 11/1/7 22/1/13 
f 28/1/17 27/1/17 26/1/17 25/1/16 
f 30/1/19 29/1/18 28/1/17 25/1/16 
f 33/1/20 32/1/20 31/1/20 30/1/19 
f 32/1/20 34/1/20 31/1/20 
f 38/1/21 37/1/21 36/1/21 35/1/21 
f 29/1/18 30/1/19 40/1/23 39/1/22 
f 39/1/22 40/1/23 42/1/25 41/1/24 
f 41/1/24 42/1/25 44/1/27 43/1/26 
f 43/1/26 44/1/27 46/1/29 45/1/28 
s 2
f 5/1/30 6/1/31 34/1/31 32/1/30 
f 6/1/31 7/1/33 31/1/32 34/1/31 
f 4/1/37 10/1/36 28/1/35 29/1/34 
f 28/1/35 10/1/36 1/1/38 27/1/38 
f 1/1/38 2/1/40 26/1/39 27/1/38 
f 2/1/40 3/1/42 25/1/41 26/1/39 
f 7/1/33 9/1/44 30/1/43 31/1/32 
f 8/1/45 5/1/30 32/1/30 33/1/45 
f 3/1/42 8/1/45 33/1/45 25/1/41 
f 11/1/49 12/1/48 35/1/47 46/1/46 
s 8
f 12/1/50 13/1/50 47/1/50 35/1/50 
s 2
f 13/1/51 24/1/53 45/1/52 47/1/51 
f 19/1/55 4/1/37 29/1/34 39/1/54 
f 9/1/44 18/1/57 40/1/56 30/1/43 
f 21/1/59 19/1/55 39/1/54 41/1/58 
f 18/1/57 20/1/61 42/1/60 40/1/56 
f 23/1/63 21/1/59 41/1/58 43/1/62 
f 20/1/61 22/1/65 44/1/64 42/1/60 
f 24/1/53 23/1/63 43/1/62 45/1/52 
f 22/1/65 11/1/49 46/1/46 44/1/64 
f 51/5/66 50/4/67 49/3/51 48/2/66 
f 50/4/67 52/7/68 14/6/68 49/3/51 
f 52/7/68 36/9/69 16/8/69 14/6/68 
f 36/9/69 37/11/70 15/10/70 16/8/69 
f 37/11/70 38/13/71 17/12/71 15/10/70 
f 38/17/71 54/16/73 53/15/72 17/14/71 
f 54/16/73 56/19/74 55/18/74 53/15/72 
f 56/19/74 58/21/75 57/20/75 55/18/74 
f 58/21/75 60/23/76 59/22/76 57/20/75 
f 62/25/78 61/24/77 59/22/76 60/23/76 
f 64/27/79 63/26/79 61/24/77 62/25/78 
f 66/29/80 65/28/80 63/26/79 64/27/79 
f 68/31/81 67/30/81 65/28/80 66/29/80 
f 70/33/83 69/32/82 67/30/81 68/31/81 
f 72/35/84 71/34/84 69/32/82 70/33/83 
f 74/37/85 73/36/85 71/34/84 72/35/84 
f 76/39/86 75/38/86 73/36/85 74/37/85 
f 51/5/66 48/2/66 75/38/86 76/39/86 
s 1
f 24/1/15 67/1/8 69/1/8 11/1/7 
f 69/1/8 71/1/8 73/1/8 11/1/7 
f 73/1/8 75/1/8 48/1/8 11/1/7 
f 67/1/8 24/1/15 63/1/8 65/1/8 
f 48/1/8 49/1/8 14/1/8 11/1/7 
f 24/1/15 13/1/8 61/1/8 63/1/8 
f 61/1/8 13/1/8 57/1/8 59/1/8 
f 57/1/8 13/1/8 53/1/8 55/1/8 
f 53/1/8 13/1/8 17/1/8 
f 14/1/8 16/1/8 13/1/8 
f 25/1/16 33/1/20 30/1/19 
f 45/1/28 46/1/29 70/1/21 68/1/21 
f 70/1/21 46/1/29 74/1/21 72/1/21 
f 74/1/21 46/1/29 51/1/21 76/1/21 
f 68/1/21 66/1/21 64/1/21 45/1/28 
f 51/1/21 46/1/29 52/1/21 50/1/21 
f 47/1/21 45/1/28 64/1/21 35/1/21 
f 64/1/21 62/1/21 60/1/21 35/1/21 
f 60/1/21 58/1/21 56/1/21 35/1/21 
f 56/1/21 54/1/21 38/1/21 35/1/21 
f 46/1/29 35/1/21 36/1/21 52/1/21 
# 73 polygons - 6 triangles

#
# object Line001
#

v  -4.3620 0.4969 16.9893
v  -4.2588 0.5819 17.0492
v  -4.1889 0.6056 17.0664
v  -4.3906 -0.4745 16.3205
v  4.2686 0.5793 17.1592
v  4.3650 0.4938 17.1064
v  4.3912 0.4342 17.0690
v  4.1994 0.6044 17.1742
v  4.3381 -0.4736 16.4939
v  -4.3908 0.4394 16.9494
v  4.2403 -0.5665 16.3593
v  -4.1141 -0.5662 7.8231
v  -4.3912 -0.5662 7.9362
v  -1.9855 -0.5663 12.7863
v  -2.2062 -0.5663 12.5232
v  -2.0727 -0.5663 12.6353
v  -2.3701 -0.5663 12.4636
v  4.3297 -0.5177 16.4607
v  -4.3907 -0.5162 16.2849
v  4.3105 -0.5465 16.4276
v  -4.3909 -0.5440 16.2456
v  4.2807 -0.5621 16.3944
v  -4.3910 -0.5606 16.2005
v  -4.3912 -0.5663 16.1459
v  -4.1895 0.5834 17.0989
v  -4.2592 0.5596 17.0817
v  -4.3624 0.4746 17.0218
v  -4.3912 0.4171 16.9819
v  -4.3912 -0.4985 16.3517
v  4.3376 -0.4959 16.5263
v  4.3908 0.4131 17.1022
v  4.2682 0.5582 17.1925
v  4.1990 0.5834 17.2075
v  4.3645 0.4727 17.1396
v  -4.1141 -0.6056 7.8231
v  -2.0727 -0.6056 12.6353
v  -2.2062 -0.6056 12.5232
v  -2.3701 -0.6056 12.4636
v  -4.3912 -0.5454 16.3113
v  4.3291 -0.5439 16.4901
v  -4.3912 -0.5788 16.2639
v  4.3100 -0.5782 16.4509
v  -4.3912 -0.5989 16.2095
v  4.2804 -0.5987 16.4089
v  -4.3912 -0.6056 16.1480
v  4.2402 -0.6056 16.3639
v  -4.3912 -0.6056 7.9362
v  -1.9855 -0.5663 13.1296
v  -1.9552 -0.5663 12.9579
v  -1.9552 -0.6056 12.9579
v  -1.9855 -0.6056 13.1296
v  -1.9855 -0.6056 12.7863
v  -2.5444 -0.5663 12.4636
v  -2.5444 -0.6056 12.4636
v  -2.7082 -0.5663 12.5232
v  -2.7082 -0.6056 12.5232
v  -2.8418 -0.5663 12.6353
v  -2.8418 -0.6056 12.6353
v  -2.9290 -0.5663 12.7863
v  -2.9290 -0.6056 12.7863
v  -2.9592 -0.5663 12.9579
v  -2.9592 -0.6056 12.9579
v  -2.9290 -0.5663 13.1296
v  -2.9290 -0.6056 13.1296
v  -2.8418 -0.5663 13.2806
v  -2.8418 -0.6056 13.2806
v  -2.7082 -0.5663 13.3927
v  -2.7082 -0.6056 13.3927
v  -2.5444 -0.5663 13.4523
v  -2.5444 -0.6056 13.4523
v  -2.3701 -0.5663 13.4523
v  -2.3701 -0.6056 13.4523
v  -2.2062 -0.5663 13.3927
v  -2.2062 -0.6056 13.3927
v  -2.0727 -0.5663 13.2806
v  -2.0727 -0.6056 13.2806
# 76 vertices

vn 0.0107 0.5669 -0.8237
vn 0.0139 0.5647 -0.8252
vn 0.0154 0.6089 -0.7931
vn 0.0109 0.5347 -0.8450
vn 0.0137 0.5666 -0.8239
vn 0.0108 0.5669 -0.8237
vn 0.0024 0.9953 -0.0966
vn 0.0000 1.0000 0.0000
vn 0.0154 0.6628 -0.7486
vn 0.0135 0.7393 -0.6732
vn 0.0129 0.8028 -0.5962
vn 0.0097 0.8857 -0.4641
vn 0.0084 0.9310 -0.3649
vn 0.0050 0.9744 -0.2247
vn 0.0012 0.9987 -0.0513
vn -0.0139 -0.5648 0.8251
vn -0.0107 -0.5669 0.8237
vn -0.0154 -0.6107 0.7917
vn -0.0137 -0.5674 0.8233
vn -0.0109 -0.5347 0.8450
vn 0.0000 -1.0000 -0.0000
vn -0.0134 -0.7410 0.6713
vn -0.0155 -0.6650 0.7467
vn -0.0096 -0.8857 0.4641
vn -0.0129 -0.8047 0.5935
vn -0.0049 -0.9738 0.2273
vn -0.0085 -0.9299 0.3677
vn -0.0012 -0.9986 0.0534
vn -0.0029 -0.9933 0.1158
vn 0.5673 0.6925 0.4456
vn 0.8468 0.4444 0.2922
vn 0.9881 0.1238 0.0912
vn 0.9881 0.1238 0.0911
vn -0.9999 0.0093 -0.0122
vn -0.9809 0.1659 0.1015
vn -0.9809 0.1659 0.1014
vn -0.9999 0.0093 -0.0118
vn -0.8329 0.4608 0.3064
vn -0.5588 0.6868 0.4648
vn -0.5586 0.6866 0.4653
vn -0.2016 0.8099 0.5509
vn -0.2007 0.8097 0.5515
vn 0.9951 -0.0867 -0.0469
vn 0.9949 -0.0903 -0.0457
vn 0.1952 0.8276 0.5263
vn 0.7315 -0.0810 -0.6770
vn 0.7149 0.0000 -0.6993
vn 0.7149 -0.0002 -0.6993
vn 0.7149 -0.1183 -0.6892
vn -0.3776 0.0000 -0.9260
vn -1.0000 0.0000 0.0000
vn -1.0000 0.0020 0.0007
vn -1.0000 0.0013 0.0013
vn -0.9999 0.0105 -0.0090
vn -0.9999 0.0101 -0.0076
vn 0.9660 -0.1922 -0.1728
vn 0.9607 -0.2189 -0.1709
vn -0.9999 0.0096 -0.0042
vn -1.0000 0.0086 -0.0021
vn 0.8833 -0.2620 -0.3887
vn 0.8595 -0.3252 -0.3943
vn -1.0000 0.0060 -0.0004
vn -1.0000 0.0046 0.0013
vn 0.7773 -0.2044 -0.5950
vn 0.7366 -0.2837 -0.6140
vn -0.9397 0.0000 -0.3420
vn -1.0000 0.0000 -0.0000
vn -0.9397 0.0000 0.3420
vn -0.7660 0.0000 0.6428
vn -0.5000 0.0000 0.8660
vn -0.1736 0.0000 0.9848
vn 0.1737 0.0000 0.9848
vn 0.1736 0.0000 0.9848
vn 0.5000 0.0000 0.8660
vn 0.7660 0.0000 0.6428
vn 0.9397 0.0000 0.3420
vn 1.0000 0.0000 0.0000
vn 1.0000 0.0000 -0.0000
vn 0.9397 0.0000 -0.3420
vn 0.7660 0.0000 -0.6428
vn 0.5000 0.0000 -0.8660
vn 0.1737 0.0000 -0.9848
vn 0.1736 0.0000 -0.9848
vn -0.1736 0.0000 -0.9848
vn -0.5000 0.0000 -0.8660
vn -0.7660 0.0000 -0.6428
# 86 vertex normals

vt 1.0000 1.0000 1.0000
vt 2.1904 1.6783 1.0000
vt 2.3656 1.6783 1.0000
vt 2.3656 1.6390 1.0000
vt 2.1904 1.6390 1.0000
vt 2.5408 1.6783 1.0000
vt 2.5408 1.6390 1.0000
vt 2.7161 1.6783 1.0000
vt 2.7161 1.6390 1.0000
vt 2.8913 1.6783 1.0000
vt 2.8913 1.6390 1.0000
vt 3.0665 1.6783 1.0000
vt 3.0665 1.6390 1.0000
vt -0.0876 1.6783 1.0000
vt 0.0876 1.6783 1.0000
vt 0.0876 1.6390 1.0000
vt -0.0876 1.6390 1.0000
vt 0.2628 1.6783 1.0000
vt 0.2628 1.6390 1.0000
vt 0.4381 1.6783 1.0000
vt 0.4381 1.6390 1.0000
vt 0.6133 1.6783 1.0000
vt 0.6133 1.6390 1.0000
vt 0.7885 1.6783 1.0000
vt 0.7885 1.6390 1.0000
vt 0.9638 1.6783 1.0000
vt 0.9638 1.6390 1.0000
vt 1.1390 1.6783 1.0000
vt 1.1390 1.6390 1.0000
vt 1.3142 1.6783 1.0000
vt 1.3142 1.6390 1.0000
vt 1.4895 1.6783 1.0000
vt 1.4895 1.6390 1.0000
vt 1.6647 1.6783 1.0000
vt 1.6647 1.6390 1.0000
vt 1.8399 1.6783 1.0000
vt 1.8399 1.6390 1.0000
vt 2.0151 1.6783 1.0000
vt 2.0151 1.6390 1.0000
# 39 texture coords

g Line001
usemtl Material__3
s 1
f 77/40/87 78/40/87 79/40/88 80/40/89 
f 81/40/90 82/40/90 83/40/90 84/40/90 
f 84/40/90 83/40/90 85/40/91 79/40/88 
f 79/40/88 85/40/91 80/40/89 
f 77/40/87 80/40/89 86/40/92 
f 87/40/93 88/40/94 89/40/94 90/40/94 
f 91/40/94 92/40/94 89/40/94 93/40/94 
f 85/40/91 94/40/95 95/40/96 80/40/89 
f 94/40/95 96/40/97 97/40/98 95/40/96 
f 96/40/97 98/40/99 99/40/100 97/40/98 
f 98/40/99 87/40/93 100/40/101 99/40/100 
f 101/40/102 102/40/103 103/40/103 104/40/103 
f 101/40/102 104/40/103 105/40/104 106/40/105 
f 106/40/105 107/40/106 108/40/106 109/40/106 
f 107/40/106 110/40/106 108/40/106 
f 111/40/107 112/40/107 113/40/107 114/40/107 
f 115/40/108 116/40/109 106/40/105 105/40/104 
f 117/40/110 118/40/111 116/40/109 115/40/108 
f 119/40/112 120/40/113 118/40/111 117/40/110 
f 121/40/114 122/40/115 120/40/113 119/40/112 
s 2
f 108/40/116 110/40/117 82/40/117 81/40/116 
f 110/40/117 107/40/118 83/40/119 82/40/117 
f 105/40/120 104/40/121 86/40/122 80/40/123 
f 103/40/124 77/40/124 86/40/122 104/40/121 
f 103/40/124 102/40/125 78/40/126 77/40/124 
f 102/40/125 101/40/127 79/40/128 78/40/126 
f 107/40/118 106/40/129 85/40/130 83/40/119 
f 109/40/131 108/40/116 81/40/116 84/40/131 
f 101/40/127 109/40/131 84/40/131 79/40/128 
f 122/40/132 111/40/133 88/40/134 87/40/135 
s 8
f 111/40/136 123/40/136 89/40/136 88/40/136 
s 2
f 123/40/137 121/40/138 100/40/139 89/40/137 
f 115/40/140 105/40/120 80/40/123 95/40/141 
f 106/40/129 116/40/142 94/40/143 85/40/130 
f 117/40/144 115/40/140 95/40/141 97/40/145 
f 116/40/142 118/40/146 96/40/147 94/40/143 
f 119/40/148 117/40/144 97/40/145 99/40/149 
f 118/40/146 120/40/150 98/40/151 96/40/147 
f 121/40/138 119/40/148 99/40/149 100/40/139 
f 120/40/150 122/40/132 87/40/135 98/40/151 
f 124/41/152 125/42/137 126/43/153 127/44/152 
f 125/42/137 90/45/154 128/46/154 126/43/153 
f 90/45/154 92/47/155 112/48/155 128/46/154 
f 92/47/155 91/49/156 113/50/156 112/48/155 
f 91/49/156 93/51/157 114/52/157 113/50/156 
f 93/53/157 129/54/158 130/55/159 114/56/157 
f 129/54/158 131/57/160 132/58/160 130/55/159 
f 131/57/160 133/59/161 134/60/161 132/58/160 
f 133/59/161 135/61/162 136/62/162 134/60/161 
f 136/62/162 135/61/162 137/63/163 138/64/164 
f 138/64/164 137/63/163 139/65/165 140/66/165 
f 140/66/165 139/65/165 141/67/166 142/68/166 
f 142/68/166 141/67/166 143/69/167 144/70/167 
f 144/70/167 143/69/167 145/71/168 146/72/169 
f 146/72/169 145/71/168 147/73/170 148/74/170 
f 148/74/170 147/73/170 149/75/171 150/76/171 
f 150/76/171 149/75/171 151/77/172 152/78/172 
f 152/78/172 151/77/172 124/41/152 127/44/152 
s 1
f 87/40/93 145/40/94 143/40/94 100/40/101 
f 87/40/93 149/40/94 147/40/94 145/40/94 
f 87/40/93 124/40/94 151/40/94 149/40/94 
f 141/40/94 139/40/94 100/40/101 143/40/94 
f 87/40/93 90/40/94 125/40/94 124/40/94 
f 139/40/94 137/40/94 89/40/94 100/40/101 
f 135/40/94 133/40/94 89/40/94 137/40/94 
f 131/40/94 129/40/94 89/40/94 133/40/94 
f 93/40/94 89/40/94 129/40/94 
f 89/40/94 92/40/94 90/40/94 
f 106/40/105 109/40/106 101/40/102 
f 144/40/107 146/40/107 122/40/115 121/40/114 
f 148/40/107 150/40/107 122/40/115 146/40/107 
f 152/40/107 127/40/107 122/40/115 150/40/107 
f 121/40/114 140/40/107 142/40/107 144/40/107 
f 126/40/107 128/40/107 122/40/115 127/40/107 
f 111/40/107 140/40/107 121/40/114 123/40/107 
f 111/40/107 136/40/107 138/40/107 140/40/107 
f 111/40/107 132/40/107 134/40/107 136/40/107 
f 111/40/107 114/40/107 130/40/107 132/40/107 
f 128/40/107 112/40/107 111/40/107 122/40/115 
# 73 polygons - 6 triangles

